<svg width="23" height="22" viewBox="0 0 23 22" fill="none" xmlns="http://www.w3.org/2000/svg">
<path d="M6.5 10L10.5 1C11.2956 1 12.0587 1.31607 12.6213 1.87868C13.1839 2.44129 13.5 3.20435 13.5 4V8H19.16C19.4499 7.99672 19.7371 8.0565 20.0016 8.17522C20.2661 8.29393 20.5016 8.46873 20.6919 8.68751C20.8821 8.90629 21.0225 9.16382 21.1033 9.44225C21.1842 9.72068 21.2035 10.0134 21.16 10.3L19.78 19.3C19.7077 19.7769 19.4654 20.2116 19.0979 20.524C18.7304 20.8364 18.2623 21.0055 17.78 21H6.5M6.5 10V21M6.5 10H3.5C2.96957 10 2.46086 10.2107 2.08579 10.5858C1.71071 10.9609 1.5 11.4696 1.5 12V19C1.5 19.5304 1.71071 20.0391 2.08579 20.4142C2.46086 20.7893 2.96957 21 3.5 21H6.5" stroke="#E93740" stroke-width="2" stroke-linecap="round" stroke-linejoin="round"/>
</svg>
